<?xml version="1.0" standalone="no"?>
<!DOCTYPE svg PUBLIC "-//W3C//DTD SVG 20010904//EN"
 "http://www.w3.org/TR/2001/REC-SVG-20010904/DTD/svg10.dtd">
<svg version="1.0" xmlns="http://www.w3.org/2000/svg"
 width="285.000000pt" height="285.000000pt" viewBox="0 0 285.000000 285.000000"
 preserveAspectRatio="xMidYMid meet">
<metadata>
Created by potrace 1.14, written by Peter Selinger 2001-2017
</metadata>
<g transform="translate(0.000000,285.000000) scale(0.100000,-0.100000)"
fill="#000000" stroke="none">
<path d="M1305 2604 c-482 -52 -896 -403 -1020 -865 -125 -469 38 -956 418
-1251 107 -82 273 -166 401 -203 433 -124 913 20 1209 363 403 466 388 1146
-35 1589 -178 185 -378 298 -623 348 -80 16 -275 27 -350 19z m368 -133 c568
-149 917 -699 801 -1262 -69 -338 -310 -635 -623 -770 -157 -67 -243 -84 -431
-83 -146 0 -176 3 -262 26 -185 50 -335 135 -471 267 -255 246 -373 579 -326
917 64 465 415 831 882 920 103 19 328 12 430 -15z"/>
<path d="M1265 2429 c-33 -6 -64 -14 -69 -19 -5 -5 1 -58 14 -123 l23 -115 45
-6 c59 -8 247 -7 297 2 l39 7 17 80 c34 169 35 152 -8 165 -52 16 -285 21
-358 9z"/>
<path d="M1085 2381 c-70 -25 -149 -66 -227 -118 -108 -72 -106 -63 -32 -175
l64 -98 50 20 c128 50 260 134 259 165 -1 38 -46 219 -55 221 -5 1 -31 -6 -59
-15z"/>
<path d="M1697 2393 c-3 -4 -14 -53 -26 -108 -13 -55 -24 -106 -26 -112 -8
-24 228 -162 298 -175 14 -2 34 21 79 90 33 50 58 98 55 106 -18 47 -363 228
-380 199z"/>
<path d="M673 2103 c-68 -79 -127 -167 -164 -247 -25 -54 -29 -69 -19 -81 15
-17 40 -20 40 -4 0 6 7 35 16 65 l15 53 76 -76 76 -77 39 44 c22 25 58 75 80
112 l39 66 -67 101 c-37 56 -70 101 -74 101 -4 0 -29 -26 -57 -57z"/>
<path d="M2045 2062 l-67 -100 18 -33 c25 -51 73 -120 107 -156 l30 -32 47 39
c26 22 58 55 71 75 29 42 35 43 43 8 27 -112 28 -113 61 -90 17 13 16 18 -24
97 -49 98 -112 189 -174 249 l-45 43 -67 -100z"/>
<path d="M1245 2110 c3 -14 20 -101 39 -193 18 -92 37 -171 41 -175 8 -8 191
-10 198 -2 6 6 77 355 77 379 0 14 -20 16 -180 16 l-180 0 5 -25z"/>
<path d="M1175 2104 c-39 -30 -131 -80 -197 -109 -38 -15 -68 -30 -68 -33 0
-8 201 -322 210 -327 11 -7 143 61 163 82 15 17 13 33 -26 207 -23 104 -47
191 -52 192 -6 2 -19 -4 -30 -12z"/>
<path d="M1592 1929 c-48 -219 -50 -209 41 -256 101 -51 83 -62 202 123 59 91
105 167 103 168 -1 2 -40 20 -86 39 -45 20 -110 54 -143 76 -34 23 -64 41 -68
41 -4 0 -26 -86 -49 -191z"/>
<path d="M868 1897 c-9 -18 -39 -63 -67 -101 -28 -37 -51 -69 -51 -71 0 -2 41
-29 91 -61 50 -31 114 -75 141 -97 l50 -39 29 28 c16 15 31 36 34 45 4 13 -27
69 -97 173 -57 85 -106 155 -109 155 -3 1 -12 -14 -21 -32z"/>
<path d="M1853 1775 c-57 -84 -103 -159 -103 -167 0 -7 14 -28 31 -46 29 -31
32 -32 53 -17 11 9 75 52 141 96 66 44 119 85 117 90 -1 6 -21 33 -43 61 -22
29 -49 68 -60 89 -10 21 -22 40 -26 42 -5 3 -54 -64 -110 -148z"/>
<path d="M446 1688 c-8 -29 -20 -82 -25 -118 -12 -75 -15 -237 -3 -243 4 -3
35 -8 68 -12 l61 -7 -14 74 c-8 40 -15 132 -16 203 -1 104 -4 132 -17 142 -27
22 -38 14 -54 -39z"/>
<path d="M2348 1729 c-16 -9 -18 -27 -18 -138 0 -112 -9 -206 -27 -265 -5 -17
0 -18 58 -11 35 4 67 12 71 19 28 43 -22 407 -56 406 -6 0 -19 -5 -28 -11z"/>
<path d="M1330 1695 c0 -5 16 -93 37 -193 35 -178 51 -218 73 -182 4 7 22 87
39 179 18 91 34 175 37 186 5 20 1 21 -90 20 -57 0 -96 -4 -96 -10z"/>
<path d="M1266 1674 c-21 -14 -58 -35 -82 -45 -24 -11 -44 -23 -44 -26 0 -14
196 -312 206 -313 5 0 18 6 28 13 17 13 16 22 -24 203 -23 104 -43 190 -44
191 -1 1 -19 -9 -40 -23z"/>
<path d="M1522 1613 c-69 -304 -68 -294 -47 -309 11 -8 24 -13 30 -11 8 3 205
301 205 312 0 2 -25 15 -56 29 -30 14 -68 35 -84 46 l-28 20 -20 -87z"/>
<path d="M1087 1544 l-29 -35 74 -77 c40 -42 92 -105 114 -140 39 -59 42 -61
57 -44 10 10 17 24 17 30 0 14 -190 302 -199 302 -3 0 -19 -16 -34 -36z"/>
<path d="M1621 1431 l-99 -148 17 -27 18 -27 57 80 c31 45 83 108 116 142 l60
61 -27 33 c-16 19 -31 34 -35 34 -4 1 -52 -66 -107 -148z"/>
<path d="M424 1244 c9 -62 58 -208 91 -273 l25 -50 47 14 c27 9 65 20 86 25
l37 11 -31 45 c-27 39 -77 140 -117 237 -9 20 -19 27 -39 27 -16 0 -45 3 -67
7 l-39 6 7 -49z"/>
<path d="M1370 1279 c-25 -10 -69 -56 -70 -72 0 -5 10 -22 21 -39 16 -22 28
-29 45 -25 30 5 30 5 -1 -47 -24 -41 -24 -44 -8 -59 12 -10 34 -15 68 -13 80
4 91 19 55 78 -22 36 -26 53 -10 43 18 -11 50 6 64 34 13 24 12 30 -5 58 -30
47 -100 65 -159 42z"/>
<path d="M2343 1283 c-49 -5 -51 -7 -87 -100 -15 -39 -47 -102 -71 -140 -30
-46 -40 -70 -32 -74 7 -4 44 -16 84 -27 l72 -20 29 61 c34 70 76 201 87 265 8
47 15 44 -82 35z"/>
<path d="M1297 979 c-39 -61 -69 -94 -111 -125 l-28 -20 28 -18 c16 -10 41
-30 56 -44 21 -19 29 -22 32 -11 3 8 24 65 47 128 36 101 39 115 26 128 -13
14 -19 9 -50 -38z"/>
<path d="M1494 1015 c-7 -17 74 -255 87 -255 4 0 20 11 36 24 15 12 38 28 51
35 23 12 23 13 -22 47 -24 18 -64 63 -87 99 -43 67 -55 76 -65 50z"/>
<path d="M1385 1002 c-12 -8 -91 -249 -84 -256 2 -2 31 1 64 6 42 8 77 7 119
0 33 -6 62 -10 64 -8 8 8 -71 242 -86 254 -17 13 -61 16 -77 4z"/>
<path d="M640 919 c-30 -10 -61 -21 -69 -24 -11 -4 -10 -10 4 -33 36 -56 130
-165 172 -199 l43 -35 95 82 c52 46 95 87 95 91 0 5 -10 9 -22 9 -35 0 -128
47 -180 91 -53 44 -61 45 -138 18z"/>
<path d="M2070 905 c-43 -42 -113 -81 -162 -90 -21 -4 -38 -11 -38 -15 0 -4
33 -36 73 -71 39 -35 82 -72 95 -83 l23 -20 75 75 c78 78 160 184 147 192 -14
9 -150 47 -164 46 -8 0 -30 -15 -49 -34z"/>
<path d="M1068 810 c-28 -5 -63 -31 -144 -105 l-106 -99 28 -23 c71 -57 296
-156 313 -137 4 5 29 69 55 143 35 101 44 137 35 147 -18 22 -116 84 -131 83
-7 -1 -30 -5 -50 -9z"/>
<path d="M1665 786 c-85 -57 -84 -48 -28 -204 47 -129 51 -137 75 -135 41 2
170 60 249 110 l72 47 -104 97 c-88 83 -111 99 -152 108 -63 14 -55 16 -112
-23z"/>
<path d="M1324 719 l-41 -10 -43 -132 c-23 -73 -43 -136 -44 -141 -2 -15 120
-35 216 -36 102 0 238 18 238 32 0 6 -19 70 -42 144 l-41 133 -49 11 c-58 12
-137 12 -194 -1z"/>
</g>
</svg>
